<?xml version="1.0" encoding="UTF-8"?>
<svg id="Layer_1" xmlns="http://www.w3.org/2000/svg" version="1.1" viewBox="0 0 938.6 154.2">
  <!-- Generator: Adobe Illustrator 30.1.0, SVG Export Plug-In . SVG Version: 2.1.1 Build 136)  -->
  <defs>
    <style>
      .st0 {
        fill: #f4f5fb;
      }

      .st1 {
        fill: #0e0e19;
      }
    </style>
  </defs>
  <g>
    <rect class="st1" x="5" y="4.9" width="129" height="129" rx="31" ry="31"/>
    <path class="st0" d="M54.4,59.8l15.1-18.3,15.1,18.3c-8.9-8.2-21.3-8.2-30.2,0ZM54.4,59.8h0s0,0,0,0h0ZM84.6,59.8h0s0,0,0,0h0ZM99.7,78.1h0l-15.1-18.3-15.1,18.3h0c8.9-8.2,21.3-8.2,30.2,0ZM69.5,78.1h0l-15.1-18.3-15.1,18.3h0c8.9-8.2,21.3-8.2,30.2,0ZM54.4,96.4h0s0,0,0,0ZM24.1,96.4h0s0,0,0,0h0ZM24.1,96.4c8.9-8.2,21.3-8.2,30.2,0l-15.1-18.3-15.1,18.3ZM84.6,96.4h0s0,0,0,0ZM54.4,96.4c8.9-8.2,21.3-8.2,30.2,0l-15.1-18.3-15.1,18.3ZM54.4,96.4h0s0,0,0,0h0ZM114.8,96.4h0s0,0,0,0h0ZM99.7,78.1l-15.1,18.3h0c8.9-8.2,21.3-8.2,30.2,0l-15.1-18.3Z"/>
  </g>
  <path class="st1" d="M206,37.5c-3.8,0-7.3,1.9-9.4,5l-39.9,58.2h8.5l11.7-17h58.3l11.7,17h8.5l-39.9-58.2c-2.1-3.1-5.7-5-9.4-5ZM181.6,76.7l24.3-35.6,24.3,35.6h-48.6ZM278.3,38.2h61.9v7h-69.6v48.4h69.6v7h-61.9c-8.1,0-14.7-6.6-14.7-14.7v-33c0-8.1,6.6-14.7,14.7-14.7ZM350.5,38.2h75.7v7h-34.3v55.5h-7v-55.5h-34.3v-7ZM523.2,38.2h8.5l-39.9,58.2c-2.1,3.1-5.7,5-9.4,5s-7.3-1.9-9.4-5l-39.9-58.2h8.5l40.8,59.5,40.8-59.5ZM565.3,38.2h75.7v7h-34.3v55.5h-7v-55.5h-34.3v-7ZM715.2,38.2h-61.9v62.5h7v-21.1h62.5v21.1h7v-13.4c0-4.9-2.4-9-6.6-11.2,4.2-2.3,6.6-6.3,6.6-11.2v-11.9c0-8.1-6.6-14.7-14.7-14.7ZM723,45.2v27.3h-62.5v-27.3h62.5ZM760,69.2l62.5,31.5h-15.9c0,0-46.7-23.7-46.7-23.7-3-1.5-4.9-4.5-4.9-7.8s1.9-6.3,4.9-7.8l46-23.2h15.7l-61.6,31ZM744.5,38.2h7v62.5h-7v-62.5ZM909.7,64.8v-11.9c0-8.1-6.6-14.7-14.7-14.7h-61.9v62.5h7v-21.1h62.5v21.1h7v-13.4c0-4.9-2.4-9-6.6-11.2,4.2-2.3,6.6-6.3,6.6-11.2ZM902.6,45.2v27.3h-62.5v-27.3h62.5Z"/>
</svg>