<?xml version="1.0" encoding="UTF-8"?>
<svg id="Layer_1" xmlns="http://www.w3.org/2000/svg" version="1.1" viewBox="0 0 906 129">
  <!-- Generator: Adobe Illustrator 30.2.1, SVG Export Plug-In . SVG Version: 2.1.1 Build 1)  -->
  <defs>
    <style>
      .st0 {
        fill: #f4f5fb;
      }

      .st1 {
        fill: #0e0e19;
      }
    </style>
  </defs>
  <g>
    <rect class="st1" width="129" height="129" rx="31" ry="31"/>
    <path class="st0" d="M49.3,54.9l15.1-18.3,15.1,18.3c-8.9-8.2-21.3-8.2-30.2,0ZM49.3,54.9h0ZM79.6,54.9h0ZM94.7,73.2h0l-15.1-18.3-15.1,18.3h0c8.9-8.2,21.3-8.2,30.2,0ZM64.5,73.2h0l-15.1-18.3-15.1,18.3h0c8.9-8.2,21.3-8.2,30.2,0ZM49.3,91.5h0ZM19.1,91.5h0ZM19.1,91.5c8.9-8.2,21.3-8.2,30.2,0l-15.1-18.3s-15.1,18.3-15.1,18.3ZM79.6,91.5h0ZM49.3,91.5c8.9-8.2,21.3-8.2,30.2,0l-15.1-18.3s-15.1,18.3-15.1,18.3ZM49.3,91.5h0ZM109.8,91.5h0ZM94.7,73.2l-15.1,18.3h0c8.9-8.2,21.3-8.2,30.2,0,0,0-15.1-18.3-15.1-18.3Z"/>
  </g>
  <path class="st1" d="M200.9,32.6c-3.8,0-7.3,1.9-9.4,5l-39.9,58.2h8.5l11.7-17h58.3l11.7,17h8.5l-39.9-58.2c-2.1-3.1-5.7-5-9.4-5,0,0-.1,0-.1,0ZM176.6,71.8l24.3-35.6,24.3,35.6h-48.6ZM273.2,33.2h61.9v7h-69.6v48.4h69.6v7h-61.9c-8.1,0-14.7-6.6-14.7-14.7v-33c0-8.1,6.6-14.7,14.7-14.7ZM345.5,33.2h75.7v7h-34.3v55.5h-7v-55.5h-34.3v-7h-.1ZM518.2,33.2h8.5l-39.9,58.2c-2.1,3.1-5.7,5-9.4,5s-7.3-1.9-9.4-5l-39.9-58.2h8.5l40.8,59.5s40.8-59.5,40.8-59.5ZM560.3,33.2h75.7v7h-34.3v55.5h-7v-55.5h-34.3v-7h-.1ZM755,64.3l62.5,31.5h-15.9l-46.7-23.7c-3-1.5-4.9-4.5-4.9-7.8s1.9-6.3,4.9-7.8l46-23.2h15.7l-61.6,31ZM739.5,33.2h7v62.5h-7s0-62.5,0-62.5ZM862.1,74.6h25.8c8.1,0,14.7-6.6,14.7-14.7h0v-11.9c0-8.1-6.6-14.7-14.7-14.7h-61.9v62.5h7v-55.5h62.5v27.3h-58.3s1.7,3.2,5.4,5.1l3.8,1.9,41.7,21h15.9l-42-21.1h0ZM684.4,74.6h25.8c8.1,0,14.7-6.6,14.7-14.7h0v-11.9c0-8.1-6.6-14.7-14.7-14.7h-61.9v62.5h7v-55.5h62.5v27.3h-58.3s1.7,3.2,5.4,5.1l3.8,1.9,41.7,21h15.9l-42-21.1h0Z"/>
</svg>