<?xml version="1.0" encoding="UTF-8"?>
<svg id="Layer_1" xmlns="http://www.w3.org/2000/svg" xmlns:xlink="http://www.w3.org/1999/xlink" version="1.1" viewBox="0 0 1920 294">
  <!-- Generator: Adobe Illustrator 30.1.0, SVG Export Plug-In . SVG Version: 2.1.1 Build 136)  -->
  <defs>
    <style>
      .st0 {
        fill: url(#linear-gradient1);
      }

      .st1 {
        fill: #f4f5fb;
      }

      .st2 {
        fill: url(#linear-gradient);
      }

      .st3 {
        fill: #0e0e19;
      }

      .st4 {
        fill: url(#linear-gradient2);
        filter: url(#drop-shadow-1);
      }

      .st5 {
        fill: #fff;
      }
    </style>
    <linearGradient id="linear-gradient" x1="516.7" y1="-1007.4" x2="627.6" y2="-896.6" gradientUnits="userSpaceOnUse">
      <stop offset="0" stop-color="#b6d5fa"/>
      <stop offset=".1" stop-color="#c1dbfa"/>
      <stop offset=".3" stop-color="#e0edfc"/>
      <stop offset=".5" stop-color="#fff"/>
      <stop offset=".8" stop-color="#e9e1ff"/>
      <stop offset="1" stop-color="#e0d4ff"/>
    </linearGradient>
    <linearGradient id="linear-gradient1" x1="623.8" y1="-952" x2="1405" y2="-952" xlink:href="#linear-gradient"/>
    <linearGradient id="linear-gradient2" x1="4961.7" y1="302.3" x2="5438.3" y2="778.9" xlink:href="#linear-gradient"/>
    <filter id="drop-shadow-1" x="4842" y="197" width="716" height="710" filterUnits="userSpaceOnUse">
      <feOffset dx="0" dy="11"/>
      <feGaussianBlur result="blur" stdDeviation="33"/>
      <feFlood flood-color="#000" flood-opacity="0"/>
      <feComposite in2="blur" operator="in"/>
      <feComposite in="SourceGraphic"/>
    </filter>
  </defs>
  <rect class="st1" x="2120" width="1920" height="1080"/>
  <g>
    <g>
      <path class="st5" d="M80.8,163.4h0l31.7,38.4,31.7-38.4c-18.6-17.1-44.7-17.1-63.4,0Z"/>
      <path class="st5" d="M248.3,10H40c-17.1,0-31,13.9-31,31v208.3c0,17.1,13.9,31,31,31h208.3c17.1,0,31-13.9,31-31V41c0-17.1-13.9-31-31-31ZM144.2,86.7l31.7,38.4c-18.6-17.1-44.7-17.1-63.4,0l31.7-38.4ZM239.3,201.8h0c-18.6-17.1-44.7-17.1-63.4,0l31.7-38.4c-18.6-17.1-44.7-17.1-63.4,0l31.7,38.4c-18.6-17.1-44.7-17.1-63.4,0-18.6-17.1-44.7-17.1-63.4,0l31.7-38.4,31.7-38.4,31.7,38.4,31.7-38.4,31.7,38.4,31.7,38.4h0s0,0,0,0Z"/>
    </g>
    <path class="st5" d="M430.2,78.3c-7.9,0-15.3,3.9-19.7,10.5l-83.6,121.9h17.8l24.5-35.5h122.2l24.5,35.5h17.8l-83.6-121.9c-4.5-6.6-11.8-10.5-19.7-10.5ZM379.3,160.4l51-74.5,51,74.5h-102ZM581.8,79.7h129.7v14.7h-145.8v101.5h145.8v14.7h-129.7c-17,0-30.9-13.9-30.9-30.9v-69.2c0-17,13.9-30.9,30.9-30.9ZM733.3,79.7h158.7v14.7h-72v116.3h-14.7v-116.3h-72v-14.7ZM1095.2,79.7h17.8l-83.6,121.9c-4.5,6.6-11.8,10.5-19.7,10.5s-15.3-3.9-19.7-10.5l-83.6-121.9h17.8l85.6,124.8,85.6-124.8ZM1183.4,79.7h158.7v14.7h-72v116.3h-14.7v-116.3h-72v-14.7ZM1591.6,144.7l131,66h-32.8l-.4-.2-97.8-49.4c-6.3-3.2-10.2-9.4-10.2-16.4s3.9-13.2,10.2-16.4l96.4-48.6h32.8l-129.2,65.1ZM1559.1,79.7h14.7v131h-14.7V79.7ZM1816,166.4h54.2c17.1,0,30.9-13.8,30.9-30.9,0,0,0,0,0,0h0v-24.9c0-17.1-13.8-30.9-30.9-30.9h-129.7v131h14.7v-116.3h131.1v57.2h-122.2s3.5,6.8,11.4,10.8l7.9,4,87.4,44.1.4.2h32.8l-88-44.3ZM1443.6,166.4h54.2c17.1,0,30.9-13.8,30.9-30.9,0,0,0,0,0,0h0v-24.9c0-17.1-13.8-30.9-30.9-30.9h-129.7v131h14.7v-116.3h131.1v57.2h-122.2s3.5,6.8,11.4,10.8l7.9,4,87.4,44.1.4.2h32.8l-88-44.3Z"/>
  </g>
  <g>
    <g>
      <rect class="st2" x="507.7" y="-1016.5" width="129" height="129" rx="-379.3" ry="-379.3"/>
      <path class="st3" d="M557-961.6l15.1-18.3,15.1,18.3c-8.9-8.2-21.3-8.2-30.2,0ZM557-961.6h0s0,0,0,0h0ZM587.3-961.6h0s0,0,0,0h0ZM602.4-943.3h0l-15.1-18.3-15.1,18.3h0c8.9-8.2,21.3-8.2,30.2,0ZM572.1-943.3h0l-15.1-18.3-15.1,18.3h0c8.9-8.2,21.3-8.2,30.2,0ZM557-925h0s0,0,0,0ZM526.8-925h0s0,0,0,0h0ZM526.8-925c8.9-8.2,21.3-8.2,30.2,0l-15.1-18.3-15.1,18.3ZM587.3-925h0s0,0,0,0ZM557-925c8.9-8.2,21.3-8.2,30.2,0l-15.1-18.3-15.1,18.3ZM557-925h0s0,0,0,0h0ZM617.5-925h0s0,0,0,0h0ZM602.4-943.3l-15.1,18.3h0c8.9-8.2,21.3-8.2,30.2,0l-15.1-18.3Z"/>
    </g>
    <path class="st0" d="M708.6-983.9c-3.8,0-7.3,1.9-9.4,5l-39.9,58.2h8.5l11.7-17h58.3l11.7,17h8.5l-39.9-58.2c-2.1-3.1-5.7-5-9.4-5ZM684.3-944.7l24.3-35.6,24.3,35.6h-48.6ZM780.9-983.3h61.9v7h-69.6v48.4h69.6v7h-61.9c-8.1,0-14.7-6.6-14.7-14.7v-33c0-8.1,6.6-14.7,14.7-14.7ZM853.2-983.3h75.7v7h-34.3v55.5h-7v-55.5h-34.3v-7ZM1025.9-983.3h8.5l-39.9,58.2c-2.1,3.1-5.7,5-9.4,5s-7.3-1.9-9.4-5l-39.9-58.2h8.5l40.8,59.5,40.8-59.5ZM1067.9-983.3h75.7v7h-34.3v55.5h-7v-55.5h-34.3v-7ZM1217.9-983.3h-61.9v62.5h7v-21.1h62.5v21.1h7v-13.4c0-4.9-2.4-9-6.6-11.2,4.2-2.3,6.6-6.3,6.6-11.2v-11.9c0-8.1-6.6-14.7-14.7-14.7ZM1225.6-976.2v27.3h-62.5v-27.3h62.5ZM1262.7-952.2l62.5,31.5h-15.9c0,0-46.7-23.7-46.7-23.7-3-1.5-4.9-4.5-4.9-7.8s1.9-6.3,4.9-7.8l46-23.2h15.7l-61.6,31ZM1247.2-983.3h7v62.5h-7v-62.5ZM1412.3-956.6v-11.9c0-8.1-6.6-14.7-14.7-14.7h-61.9v62.5h7v-21.1h62.5v21.1h7v-13.4c0-4.9-2.4-9-6.6-11.2,4.2-2.3,6.6-6.3,6.6-11.2ZM1405.3-976.2v27.3h-62.5v-27.3h62.5Z"/>
  </g>
  <g>
    <g>
      <rect class="st3" x="2627.7" y="475.5" width="129" height="129" rx="31" ry="31"/>
      <path class="st1" d="M2677,530.4l15.1-18.3,15.1,18.3c-8.9-8.2-21.3-8.2-30.2,0ZM2677,530.4h0s0,0,0,0h0ZM2707.3,530.4h0s0,0,0,0h0ZM2722.4,548.7h0l-15.1-18.3-15.1,18.3h0c8.9-8.2,21.3-8.2,30.2,0ZM2692.1,548.7h0l-15.1-18.3-15.1,18.3h0c8.9-8.2,21.3-8.2,30.2,0ZM2677,567h0s0,0,0,0ZM2646.8,567h0s0,0,0,0h0ZM2646.8,567c8.9-8.2,21.3-8.2,30.2,0l-15.1-18.3-15.1,18.3ZM2707.3,567h0s0,0,0,0ZM2677,567c8.9-8.2,21.3-8.2,30.2,0l-15.1-18.3-15.1,18.3ZM2677,567h0s0,0,0,0h0ZM2737.5,567h0s0,0,0,0h0ZM2722.4,548.7l-15.1,18.3h0c8.9-8.2,21.3-8.2,30.2,0l-15.1-18.3Z"/>
    </g>
    <path class="st3" d="M2828.6,508.1c-3.8,0-7.3,1.9-9.4,5l-39.9,58.2h8.5l11.7-17h58.3l11.7,17h8.5l-39.9-58.2c-2.1-3.1-5.7-5-9.4-5ZM2804.3,547.3l24.3-35.6,24.3,35.6h-48.6ZM2900.9,508.7h61.9v7h-69.6v48.4h69.6v7h-61.9c-8.1,0-14.7-6.6-14.7-14.7v-33c0-8.1,6.6-14.7,14.7-14.7ZM2973.2,508.7h75.7v7h-34.3v55.5h-7v-55.5h-34.3v-7ZM3145.9,508.7h8.5l-39.9,58.2c-2.1,3.1-5.7,5-9.4,5s-7.3-1.9-9.4-5l-39.9-58.2h8.5l40.8,59.5,40.8-59.5ZM3187.9,508.7h75.7v7h-34.3v55.5h-7v-55.5h-34.3v-7ZM3382.7,539.8l62.5,31.5h-15.9c0,0-46.7-23.7-46.7-23.7-3-1.5-4.9-4.5-4.9-7.8s1.9-6.3,4.9-7.8l46-23.2h15.7l-61.6,31ZM3367.2,508.7h7v62.5h-7v-62.5ZM3489.8,550.1h25.8c8.1,0,14.7-6.6,14.7-14.7,0,0,0,0,0,0h0v-11.9c0-8.1-6.6-14.7-14.7-14.7h-61.9v62.5h7v-55.5h62.5v27.3h-58.3s1.7,3.2,5.4,5.1l3.8,1.9,41.7,21h.2c0,0,15.7,0,15.7,0l-42-21.1ZM3312.1,550.1h25.8c8.1,0,14.7-6.6,14.7-14.7,0,0,0,0,0,0h0v-11.9c0-8.1-6.6-14.7-14.7-14.7h-61.9v62.5h7v-55.5h62.5v27.3h-58.3s1.7,3.2,5.4,5.1l3.8,1.9,41.7,21h.2c0,0,15.7,0,15.7,0l-42-21.1Z"/>
  </g>
  <g>
    <g>
      <rect class="st3" x="507.7" y="-1226.5" width="129" height="129" rx="-484.3" ry="-484.3"/>
      <path class="st1" d="M557-1171.6l15.1-18.3,15.1,18.3c-8.9-8.2-21.3-8.2-30.2,0ZM557-1171.6h0s0,0,0,0h0ZM587.3-1171.6h0s0,0,0,0h0ZM602.4-1153.3h0l-15.1-18.3-15.1,18.3h0c8.9-8.2,21.3-8.2,30.2,0ZM572.1-1153.3h0l-15.1-18.3-15.1,18.3h0c8.9-8.2,21.3-8.2,30.2,0ZM557-1135h0s0,0,0,0ZM526.8-1135h0s0,0,0,0h0ZM526.8-1135c8.9-8.2,21.3-8.2,30.2,0l-15.1-18.3-15.1,18.3ZM587.3-1135h0s0,0,0,0ZM557-1135c8.9-8.2,21.3-8.2,30.2,0l-15.1-18.3-15.1,18.3ZM557-1135h0s0,0,0,0h0ZM617.5-1135h0s0,0,0,0h0ZM602.4-1153.3l-15.1,18.3h0c8.9-8.2,21.3-8.2,30.2,0l-15.1-18.3Z"/>
    </g>
    <g>
      <path class="st3" d="M708.6-1193.9c-3.8,0-7.3,1.9-9.4,5l-39.9,58.2h8.5l11.7-17h58.3l11.7,17h8.5l-39.9-58.2c-2.1-3.1-5.7-5-9.4-5ZM684.3-1154.7l24.3-35.6,24.3,35.6h-48.6Z"/>
      <polygon class="st3" points="853.2 -1186.2 887.5 -1186.2 887.5 -1130.8 894.6 -1130.8 894.6 -1186.2 928.9 -1186.2 928.9 -1193.3 853.2 -1193.3 853.2 -1186.2"/>
      <path class="st3" d="M766.2-1178.5v33c0,8.1,6.6,14.7,14.7,14.7h61.9v-7h-69.6v-48.4h69.6v-7h-61.9c-8.1,0-14.7,6.6-14.7,14.7Z"/>
      <path class="st3" d="M985.1-1133.7l-40.8-59.5h-8.5l39.9,58.2c2.1,3.1,5.7,5,9.4,5s7.3-1.9,9.4-5l39.9-58.2h-8.5l-40.8,59.5Z"/>
      <path class="st3" d="M1324.3-1193.3h-15.7l-46,23.2c-3,1.5-4.9,4.5-4.9,7.8s1.9,6.3,4.9,7.8l46.7,23.6h.2c0,0,15.7,0,15.7,0l-62.5-31.5,61.6-31Z"/>
      <path class="st3" d="M1405.3-1167.6h7v-11c0-8.1-6.6-14.7-14.7-14.7h-61.9v62.5h7v-55.5h62.5v18.7Z"/>
      <polygon class="st3" points="1067.9 -1186.2 1102.3 -1186.2 1102.3 -1130.8 1109.3 -1130.8 1109.3 -1186.2 1143.7 -1186.2 1143.7 -1193.3 1067.9 -1193.3 1067.9 -1186.2"/>
      <rect class="st3" x="1247.2" y="-1193.3" width="7" height="62.5"/>
      <path class="st3" d="M1225.6-1167.6h7v-11c0-8.1-6.6-14.7-14.7-14.7h-61.9v62.5h7v-55.5h62.5v18.7Z"/>
    </g>
  </g>
  <rect class="st3" x="4240" width="1920" height="1080"/>
  <g>
    <rect class="st4" x="4941.9" y="285.1" width="516.2" height="510.9" rx="63.1" ry="63.1"/>
    <path class="st3" d="M5139.5,502.5l60.5-72.5,60.5,72.5c-35.6-32.3-85.4-32.3-121,0ZM5139.5,502.5h0s0,0,0,0h0ZM5260.5,502.5h0s0,0,0,0h0ZM5321,575h0l-60.5-72.5-60.5,72.5h0c35.6-32.3,85.4-32.3,121,0ZM5200,575h0l-60.5-72.5-60.5,72.5h0c35.6-32.3,85.4-32.3,121,0ZM5139.5,647.5h0s0,0,0,0ZM5018.5,647.5h0s0,0,0,0h0ZM5018.5,647.5c35.6-32.3,85.4-32.3,121,0l-60.5-72.5-60.5,72.5ZM5260.5,647.5h0s0,0,0,0ZM5139.5,647.5c35.6-32.3,85.4-32.3,121,0l-60.5-72.5-60.5,72.5ZM5139.5,647.5h0s0,0,0,0h0ZM5381.5,647.5h0s0,0,0,0h0ZM5321,575l-60.5,72.5h0c35.6-32.3,85.4-32.3,121,0l-60.5-72.5Z"/>
  </g>
</svg>