<?xml version="1.0" encoding="UTF-8"?>
<svg id="Layer_1" xmlns="http://www.w3.org/2000/svg" xmlns:xlink="http://www.w3.org/1999/xlink" version="1.1" viewBox="0 0 938.6 154.2">
  <!-- Generator: Adobe Illustrator 30.1.0, SVG Export Plug-In . SVG Version: 2.1.1 Build 136)  -->
  <defs>
    <style>
      .st0 {
        fill: none;
      }

      .st1 {
        fill: url(#linear-gradient1);
      }

      .st2 {
        fill: url(#linear-gradient);
      }

      .st3 {
        fill: #0e0e19;
      }

      .st4 {
        clip-path: url(#clippath-1);
      }

      .st5 {
        clip-path: url(#clippath-2);
      }

      .st6 {
        clip-path: url(#clippath);
      }
    </style>
    <clipPath id="clippath">
      <rect class="st0" x="3" y="3.6" width="129" height="129" rx="31" ry="31"/>
    </clipPath>
    <linearGradient id="linear-gradient" x1="-489.9" y1="630.9" x2="-488.9" y2="630.9" gradientTransform="translate(-98804 76765.7) rotate(90) scale(156.7 -156.7)" gradientUnits="userSpaceOnUse">
      <stop offset="0" stop-color="#b6d5fa"/>
      <stop offset="0" stop-color="#b6d5fa"/>
      <stop offset=".1" stop-color="#c1dbfa"/>
      <stop offset=".3" stop-color="#e0edfc"/>
      <stop offset=".5" stop-color="#fff"/>
      <stop offset=".8" stop-color="#e9e1ff"/>
      <stop offset="1" stop-color="#e0d4ff"/>
    </linearGradient>
    <clipPath id="clippath-1">
      <rect class="st0" x="-504.7" y="-471.9" width="1920" height="1080"/>
    </clipPath>
    <clipPath id="clippath-2">
      <path class="st0" d="M276.2,36.8c-8.1,0-14.7,6.6-14.7,14.7v33c0,8.1,6.6,14.7,14.7,14.7h61.9v-7h-69.6v-48.4h69.6v-7h-61.9ZM348.5,36.8v7h34.3v55.5h7v-55.5h34.3v-7h-75.7ZM521.2,36.8l-40.8,59.5-40.8-59.5h-8.5l39.9,58.2c2.1,3.1,5.7,5,9.4,5s7.3-1.9,9.4-5l39.9-58.2h-8.5ZM563.3,36.8v7h34.3v55.5h7v-55.5h34.3v-7h-75.7ZM658.4,43.9h62.5v27.3h-62.5v-27.3ZM651.4,36.8v62.5h7v-21.1h62.5v21.1h7v-13.4c0-4.9-2.4-9-6.6-11.2,4.2-2.3,6.6-6.3,6.6-11.2v-11.9c0-8.1-6.6-14.7-14.7-14.7h-61.9ZM742.5,99.4h7v-62.5h-7v62.5ZM803.9,36.8l-46,23.2c-3,1.5-4.9,4.5-4.9,7.8s1.9,6.3,4.9,7.8l46.7,23.6h.2c0,0,15.7,0,15.7,0l-62.5-31.5,61.6-31h-15.7ZM838.1,43.9h62.5v27.3h-62.5v-27.3ZM831.1,36.8v62.5h7v-21.1h62.5v21.1h7v-13.4c0-4.9-2.4-9-6.6-11.2,4.2-2.3,6.6-6.3,6.6-11.2v-11.9c0-8.1-6.6-14.7-14.7-14.7h-61.9ZM203.9,39.8l24.3,35.6h-48.6l24.3-35.6ZM194.5,41.2l-39.9,58.2h8.5l11.7-17h58.3l11.7,17h8.5l-39.9-58.2c-2.1-3.1-5.7-5-9.4-5s-7.3,1.9-9.4,5"/>
    </clipPath>
    <linearGradient id="linear-gradient1" x1="-489.7" y1="630.9" x2="-488.7" y2="630.9" gradientTransform="translate(382690.4 492887.6) scale(781.2 -781.2)" xlink:href="#linear-gradient"/>
  </defs>
  <g class="st6">
    <rect class="st2" x="-23.8" y="-23.1" width="182.4" height="182.4" transform="translate(-28.4 67.6) rotate(-45)"/>
  </g>
  <g class="st4">
    <path class="st3" d="M52.3,58.5l15.1-18.3,15.1,18.3c-8.9-8.2-21.3-8.2-30.2,0M52.3,58.5h0ZM82.6,58.5h0ZM97.7,76.8h0l-15.1-18.3-15.1,18.3c8.9-8.2,21.3-8.2,30.2,0M67.5,76.8h0l-15.1-18.3-15.1,18.3c8.9-8.2,21.3-8.2,30.2,0M52.3,95.1h0ZM22.1,95.1h0M22.1,95.1c8.9-8.2,21.3-8.2,30.2,0l-15.1-18.3-15.1,18.3ZM82.6,95.1h0ZM52.3,95.1c8.9-8.2,21.3-8.2,30.2,0l-15.1-18.3-15.1,18.3ZM52.3,95.1h0ZM112.8,95.1h0,0ZM97.7,76.8l-15.1,18.3c8.9-8.2,21.3-8.2,30.2,0l-15.1-18.3Z"/>
  </g>
  <g class="st5">
    <rect class="st1" x="154.6" y="36.2" width="753" height="63.8"/>
  </g>
</svg>