<?xml version="1.0" encoding="UTF-8"?>
<svg id="Layer_2" data-name="Layer 2" xmlns="http://www.w3.org/2000/svg" xmlns:xlink="http://www.w3.org/1999/xlink" viewBox="0 0 888.01 99.85">
  <defs>
    <style>
      .cls-1 {
        fill: url(#linear-gradient);
      }
    </style>
    <linearGradient id="linear-gradient" x1="0" y1="49.92" x2="888.01" y2="49.92" gradientUnits="userSpaceOnUse">
      <stop offset="0" stop-color="#b6d5fa"/>
      <stop offset=".12" stop-color="#c1dbfa"/>
      <stop offset=".34" stop-color="#e0edfc"/>
      <stop offset=".52" stop-color="#fff"/>
      <stop offset=".8" stop-color="#e9e1ff"/>
      <stop offset=".97" stop-color="#e0d4ff"/>
    </linearGradient>
  </defs>
  <g id="Layer_1-2" data-name="Layer 1">
    <path class="cls-1" d="M418.39,18.79h6.78v62.26h-6.78v-27.74h-62.79v27.74h-6.78V18.79h6.78v27.74h62.79v-27.74ZM319.3,46.53h-57.81v-20.96h69.57v-6.78h-61.73c-8.06,0-14.62,6.56-14.62,14.62v5.28c0,8.06,6.56,14.62,14.62,14.62h57.81v20.96h-69.57v6.78h61.73c8.06,0,14.62-6.56,14.62-14.62v-5.28c0-8.06-6.56-14.62-14.62-14.62ZM510.51,73.04c0,1.13-.76,1.89-1.89,1.89-.42,0-.91-.22-1.33-.54l-52.05-53.6c-1.57-1.69-3.86-2.66-6.27-2.66-4.78,0-8.68,3.89-8.68,8.67v54.25h6.78V26.81c0-1.01.88-1.89,1.89-1.89.5,0,.99.2,1.33.54l52.16,53.59c1.59,1.72,3.78,2.66,6.16,2.66,4.78,0,8.68-3.89,8.68-8.68V18.79h-6.78v54.25ZM231.12,18.13c-3.12,0-5.98,1.62-7.47,4.22l-30.61,51.64c-.33.57-.98.94-1.66.94-.88,0-1.35-.59-1.56-.95l-30.61-51.64c-1.63-2.63-4.42-4.21-7.46-4.21-4.78,0-8.67,3.89-8.67,8.67v54.25h6.78V26.81c0-1.01.88-1.89,1.89-1.89.65,0,1.22.34,1.67.95l30.5,51.64c1.63,2.63,4.42,4.21,7.46,4.21s5.98-1.62,7.47-4.22l30.61-51.64c.33-.57.98-.94,1.66-.94,1.01,0,1.89.88,1.89,1.89v54.25h6.78V26.81c0-4.78-3.89-8.67-8.68-8.67ZM834.29,74.27V18.79h-6.78v47.64c0,8.06,6.56,14.62,14.62,14.62h45.88v-6.78h-53.72ZM811.4,33.41v11.89c0,4.92-2.49,9-6.74,11.23,4.25,2.22,6.74,6.31,6.74,11.23v13.3h-6.78v-21.13h-62.79v21.13h-6.78V18.79h61.73c8.06,0,14.62,6.56,14.62,14.62ZM741.83,25.58v27.56h62.79v-27.56h-62.79ZM562.22,33.41v33.02c0,8.06,6.56,14.62,14.62,14.62h61.73v-6.78h-69.57V25.58h69.57v-6.78h-61.73c-8.06,0-14.62,6.56-14.62,14.62ZM648.87,25.58h34.34v55.48h6.78V25.58h34.34v-6.78h-75.47v6.78ZM12.34,86.08c3.55,3.04,6.55,5.17,9.72,6.9,2.32,1.26,9.75,5.07,17.14,6.33-7.56-3.19-13.84-7.75-18.24-13.24-3.84-4.79-5.67-10.57-5.29-16.7.28-4.54,1.42-8.96,3.39-13.16.93-1.98,2.03-3.81,3.1-5.58.42-.7.85-1.41,1.27-2.14,1.12-1.92,2.37-3.64,3.81-5.26l1.08-1.21-.37,1.57c-1.97,8.44.39,17.11,6.31,23.18,5.87,6.02,14.39,8.61,22.78,6.92l2.01-.4-1.69,1.15c-5.59,3.79-11.29,6.6-17.43,8.59-2.98.97-6.01,1.46-9.53,1.57-1.55.05-2.98-.15-4.51-.36-.2-.03-.39-.05-.59-.08,1.3,1.64,2.49,2.83,3.69,3.7,3.45.33,6.97-.03,11.37-1.18,7.9-2.06,16.34-5.92,23.76-10.88l4.63-3.09c4.81-3.22,9.06-7,13.96-11.69,5.29-5.06,12.3-13.16,15.66-22.98.62-1.83,1.09-3.74,1.47-6.02.79-4.71.04-9.53-2.1-13.56-2.6-4.9-6.78-7.25-13.17-7.41l-.63-.02c.1.07.19.11.29.13,3.84.74,7.81,1.91,10.86,5.39,1.82,2.08,2.57,4.88,2.15,8.1-.56,4.3-2.14,8.1-3.61,11.26-1.18,2.52-2.58,4.94-4.4,7.61l-.53.78c-.58.87-1.14,1.69-1.81,2.55-4.26,5.46-8.03,9.71-11.87,13.36l-1.45,1.38.79-1.84c3.76-8.77,2.51-18.33-3.33-25.58-5.67-7.04-14.47-10.34-23.56-8.82l-1.74.29,1.43-1.03c1.64-1.18,3.19-2.08,4.84-3.02l.08-.04c5.33-3.06,10.79-5.49,15.08-7.3-.26-.19-.5-.32-.72-.37-13.22,3.61-25.73,10.15-34.33,17.95-7.52,6.83-14.94,16.61-22.04,29.06l-.25.43c-1.17,2.08-3.13,5.56-5.48,5.65-.81.02-1.58-.28-2.26-.92-1.11-1.04-1.79-2.74-2.06-4.08.02.43.05.88.09,1.35.45,5.33,2.4,10.27,6.32,16.01,1.86,2.73,3.75,4.87,5.93,6.74ZM77.58,93c-5.7,3.38-11.72,5.53-17.91,6.39-3.6.5-8.12.7-11.38,0l1.46-.07c1.1-.05,2.14-.21,3.23-.39l.27-.04c3.6-.57,10.29-2.31,14.6-7.67.77-.96,1.29-2.18,1.5-3.52.75-4.78-4.82-6.79-7.91-7.66l3.08-1.71c.62.2,1.24.4,1.86.6,1.72.56,3.5,1.15,5.34,1.62,4.8,1.22,9.67,1.14,14.46-.25,6-1.74,10.81-5.79,13.84-11.57-1.77,6.34-6.05,12.41-12.35,17.41-2.96,2.35-6.17,4.53-10.09,6.86ZM66.18,9.32c-8.2-4.93-16.31-7.46-24.72-7.71C46.21,0,51.06-.4,55.88.39c13.14,2.17,24.98,10.22,33.35,22.68,1.17,1.69,2.19,3.34,3.5,5.67l-2.71,6.34c-5.72-10.88-14.58-20.47-23.83-25.76ZM13.83,14.35c2.26-2.23,9.56-8.99,17.55-11.91-.42.24-.83.49-1.25.75-2.15,1.19-3.76,2.51-5.09,4.16-1.4,1.8-2.02,3.6-1.82,5.36.47,4.27,6.06,6.14,8.75,7.04l5.7,1.9-2.69,1.7c-7.29-2.31-17.75-4.55-25.26,2.06-3.99,3.51-6.79,8.06-8.08,13.15-.49,1.94-.84,3.81-1.11,5.66-.38-10.33,4.34-21.04,13.31-29.87ZM99.74,58.33c-.45,3.67-1.93,7.32-4.31,10.65,1.11-5.91,1.12-11.62.03-17.39l3.63-5.79c.92,4.49,1.13,8.6.65,12.53ZM12.09,51.26l-3.06,5.28c-2.98-5.19-5-13.03-1.86-19.65.11,4.76,1.35,8.91,3.78,12.64l1.14,1.74Z"/>
  </g>
</svg>